<svg width="28" height="24" viewBox="0 0 28 24" fill="none" xmlns="http://www.w3.org/2000/svg">
<path d="M24.75 14.1562L26.9531 4.40625C27.0938 3.70312 26.5781 3 25.8281 3H7.45312L7.03125 0.9375C6.89062 0.421875 6.42188 0 5.90625 0H1.125C0.46875 0 0 0.515625 0 1.125V1.875C0 2.53125 0.46875 3 1.125 3H4.35938L7.6875 19.125C6.89062 19.5938 6.375 20.4375 6.375 21.375C6.375 22.8281 7.54688 24 9 24C10.4062 24 11.625 22.8281 11.625 21.375C11.625 20.6719 11.2969 20.0156 10.8281 19.5H20.625C20.1562 20.0156 19.875 20.6719 19.875 21.375C19.875 22.8281 21.0469 24 22.5 24C23.9062 24 25.125 22.8281 25.125 21.375C25.125 20.3438 24.5156 19.4531 23.625 19.0312L23.8594 17.9062C24.0469 17.2031 23.4844 16.5 22.7812 16.5H10.2188L9.89062 15H23.625C24.1406 15 24.6094 14.6719 24.75 14.1562Z" fill="white"/>
</svg>
